<svg xmlns="http://www.w3.org/2000/svg" viewBox="0 0 1600 420" fill="none" role="img" aria-hidden="true">
  <defs>
    <linearGradient id="orb-paper" x1="0" y1="0" x2="1" y2="1">
      <stop offset="0" stop-color="#efe6d6"/>
      <stop offset="1" stop-color="#f5f1e8"/>
    </linearGradient>
    <radialGradient id="orb-berry" cx="50%" cy="40%" r="46%">
      <stop offset="0" stop-color="#b11f3a" stop-opacity="0.22"/>
      <stop offset="1" stop-color="#b11f3a" stop-opacity="0"/>
    </radialGradient>
    <filter id="orb-grain" x="-8%" y="-8%" width="116%" height="116%">
      <feTurbulence type="fractalNoise" baseFrequency="0.8" numOctaves="2" seed="4"/>
      <feColorMatrix type="saturate" values="0"/>
      <feComponentTransfer>
        <feFuncA type="linear" slope="0.14"/>
      </feComponentTransfer>
      <feBlend in="SourceGraphic" mode="multiply"/>
    </filter>
  </defs>
  <rect width="1600" height="420" fill="url(#orb-paper)"/>
  <ellipse cx="800" cy="190" rx="520" ry="170" fill="url(#orb-berry)"/>
  <g filter="url(#orb-grain)" opacity="0.55" stroke="#2a221d" stroke-width="1.1">
    <circle cx="800" cy="200" r="70"/>
    <circle cx="800" cy="200" r="110"/>
    <circle cx="800" cy="200" r="154"/>
    <circle cx="800" cy="200" r="198"/>
    <path d="M800 40v40M800 320v40M602 200h40M958 200h40"/>
  </g>
  <g opacity="0.34" stroke="#7c1630" stroke-width="1">
    <path d="M240 80h56v42H240zM304 80h56v42H304zM240 130h56v42H240zM304 130h56v42H304zM368 80h56v42H368zM368 130h56v42H368z"/>
    <path d="M1180 220h56v42h-56zM1244 220h56v42h-56zM1308 220h56v42h-56zM1180 270h56v42h-56zM1244 270h56v42h-56zM1308 270h56v42h-56z"/>
  </g>
  <g opacity="0.42" fill="none" stroke="#20231f" stroke-width="1.3">
    <rect x="180" y="240" width="70" height="46" rx="3"/>
    <path d="M174 292h82l5 8H169z"/>
    <rect x="1340" y="70" width="70" height="46" rx="3"/>
    <path d="M1334 122h82l5 8H1329z"/>
  </g>
  <path d="M80 340C260 250 520 300 800 250C1080 200 1320 280 1520 210" stroke="#b11f3a" stroke-width="2" opacity="0.35"/>
</svg>
